<svg width="48" height="48" viewBox="0 0 48 48" fill="none" xmlns="http://www.w3.org/2000/svg">
<g id="ic-plus">
<path id="plus" fill-rule="evenodd" clip-rule="evenodd" d="M43.125 19.125H28.875V4.875C28.875 2.184 26.691 0 24 0C21.309 0 19.125 2.184 19.125 4.875V19.125H4.875C2.184 19.125 0 21.309 0 24C0 26.691 2.184 28.875 4.875 28.875H19.125V43.125C19.125 45.816 21.309 48 24 48C26.691 48 28.875 45.816 28.875 43.125V28.875H43.125C45.816 28.875 48 26.691 48 24C48 21.309 45.816 19.125 43.125 19.125" fill="white"/>
</g>
</svg>
